<?xml version="1.0" encoding="UTF-8" standalone="no"?>
<!DOCTYPE svg PUBLIC "-//W3C//DTD SVG 1.1//EN"
 "http://www.w3.org/Graphics/SVG/1.1/DTD/svg11.dtd">
<!-- Generated by graphviz version 12.2.1 (20241206.2353)
 -->
<!-- Pages: 1 -->
<svg width="576pt" height="204pt"
 viewBox="0.00 0.00 576.00 203.78" xmlns="http://www.w3.org/2000/svg" xmlns:xlink="http://www.w3.org/1999/xlink">
<g id="graph0" class="graph" transform="scale(0.482442 0.482442) rotate(0) translate(4 418.39)">
<polygon fill="white" stroke="none" points="-4,4 -4,-418.39 1189.93,-418.39 1189.93,4 -4,4"/>
<!-- the -->
<g id="node1" class="node">
<title>the</title>
<ellipse fill="none" stroke="black" cx="27" cy="-199" rx="27" ry="18"/>
<text text-anchor="middle" x="27" y="-193.95" font-family="Times New Roman,serif" font-size="14.00">the</text>
</g>
<!-- scientist -->
<g id="node2" class="node">
<title>scientist</title>
<ellipse fill="none" stroke="black" cx="137.87" cy="-366" rx="41.12" ry="18"/>
<text text-anchor="middle" x="137.87" y="-360.95" font-family="Times New Roman,serif" font-size="14.00">scientist</text>
</g>
<!-- the&#45;&gt;scientist -->
<g id="edge1" class="edge">
<title>the&#45;&gt;scientist</title>
<path fill="none" stroke="black" d="M29.49,-217.35C32.67,-245.57 42.47,-299.9 72,-334 77.9,-340.81 85.58,-346.31 93.59,-350.71"/>
<polygon fill="black" stroke="black" points="91.91,-353.79 102.43,-355.04 94.99,-347.5 91.91,-353.79"/>
<text text-anchor="middle" x="75.38" y="-342.72" font-family="Times New Roman,serif" font-size="14.00">2</text>
</g>
<!-- data -->
<g id="node5" class="node">
<title>data</title>
<ellipse fill="none" stroke="black" cx="514.05" cy="-103" rx="27" ry="18"/>
<text text-anchor="middle" x="514.05" y="-97.95" font-family="Times New Roman,serif" font-size="14.00">data</text>
</g>
<!-- the&#45;&gt;data -->
<g id="edge2" class="edge">
<title>the&#45;&gt;data</title>
<path fill="none" stroke="black" d="M31.84,-180.85C41.6,-140.32 71.34,-46 136.87,-46 136.87,-46 136.87,-46 401.62,-46 434.03,-46 466.5,-65.35 487.96,-81.5"/>
<polygon fill="black" stroke="black" points="485.79,-84.25 495.81,-87.68 490.12,-78.75 485.79,-84.25"/>
<text text-anchor="middle" x="267.96" y="-49.2" font-family="Times New Roman,serif" font-size="14.00">1</text>
</g>
<!-- report -->
<g id="node9" class="node">
<title>report</title>
<ellipse fill="none" stroke="black" cx="942.96" cy="-199" rx="32.93" ry="18"/>
<text text-anchor="middle" x="942.96" y="-193.95" font-family="Times New Roman,serif" font-size="14.00">report</text>
</g>
<!-- the&#45;&gt;report -->
<g id="edge3" class="edge">
<title>the&#45;&gt;report</title>
<path fill="none" stroke="black" d="M48.14,-210.61C69.45,-221.78 104.44,-237 136.87,-237 136.87,-237 136.87,-237 515.05,-237 583.02,-237 600.01,-236 667.98,-236 667.98,-236 667.98,-236 828.19,-236 856.22,-236 886.3,-225.72 908.49,-216"/>
<polygon fill="black" stroke="black" points="909.7,-219.3 917.33,-211.95 906.78,-212.93 909.7,-219.3"/>
<text text-anchor="middle" x="514.05" y="-240.2" font-family="Times New Roman,serif" font-size="14.00">1</text>
</g>
<!-- team -->
<g id="node13" class="node">
<title>team</title>
<ellipse fill="none" stroke="black" cx="137.87" cy="-100" rx="29.34" ry="18"/>
<text text-anchor="middle" x="137.87" y="-94.95" font-family="Times New Roman,serif" font-size="14.00">team</text>
</g>
<!-- the&#45;&gt;team -->
<g id="edge4" class="edge">
<title>the&#45;&gt;team</title>
<path fill="none" stroke="black" d="M34.19,-181.35C40.99,-164.34 53.48,-138.95 72,-123.5 79.67,-117.1 89.22,-112.38 98.62,-108.92"/>
<polygon fill="black" stroke="black" points="99.58,-112.29 108.02,-105.88 97.42,-105.63 99.58,-112.29"/>
<text text-anchor="middle" x="75.38" y="-126.7" font-family="Times New Roman,serif" font-size="14.00">2</text>
</g>
<!-- carefully -->
<g id="node3" class="node">
<title>carefully</title>
<ellipse fill="none" stroke="black" cx="267.96" cy="-366" rx="43.67" ry="18"/>
<text text-anchor="middle" x="267.96" y="-360.95" font-family="Times New Roman,serif" font-size="14.00">carefully</text>
</g>
<!-- scientist&#45;&gt;carefully -->
<g id="edge5" class="edge">
<title>scientist&#45;&gt;carefully</title>
<path fill="none" stroke="black" d="M179.4,-366C189.95,-366 201.49,-366 212.63,-366"/>
<polygon fill="black" stroke="black" points="212.53,-369.5 222.53,-366 212.53,-362.5 212.53,-369.5"/>
<text text-anchor="middle" x="200.36" y="-369.2" font-family="Times New Roman,serif" font-size="14.00">1</text>
</g>
<!-- analyzed -->
<g id="node4" class="node">
<title>analyzed</title>
<ellipse fill="none" stroke="black" cx="400.62" cy="-366" rx="43.67" ry="18"/>
<text text-anchor="middle" x="400.62" y="-360.95" font-family="Times New Roman,serif" font-size="14.00">analyzed</text>
</g>
<!-- scientist&#45;&gt;analyzed -->
<g id="edge6" class="edge">
<title>scientist&#45;&gt;analyzed</title>
<path fill="none" stroke="black" d="M168.14,-378.65C183.72,-384.58 203.4,-390.81 221.73,-393 273.53,-399.19 288.89,-401.69 338.95,-387 344.55,-385.35 350.41,-383.5 356.17,-381.6"/>
<polygon fill="black" stroke="black" points="357.28,-384.92 365.62,-378.4 355.03,-378.29 357.28,-384.92"/>
<text text-anchor="middle" x="267.96" y="-401.09" font-family="Times New Roman,serif" font-size="14.00">1</text>
</g>
<!-- carefully&#45;&gt;analyzed -->
<g id="edge7" class="edge">
<title>carefully&#45;&gt;analyzed</title>
<path fill="none" stroke="black" d="M312.11,-366C322.7,-366 334.18,-366 345.22,-366"/>
<polygon fill="black" stroke="black" points="345.01,-369.5 355.01,-366 345.01,-362.5 345.01,-369.5"/>
<text text-anchor="middle" x="335.57" y="-369.2" font-family="Times New Roman,serif" font-size="14.00">1</text>
</g>
<!-- analyzed&#45;&gt;the -->
<g id="edge8" class="edge">
<title>analyzed&#45;&gt;the</title>
<path fill="none" stroke="black" d="M366.64,-354.47C350.9,-349.25 331.72,-343.3 314.2,-339 208.03,-312.91 158.35,-363.06 72,-296 50.71,-279.46 39.4,-250.3 33.6,-228.26"/>
<polygon fill="black" stroke="black" points="37.04,-227.58 31.34,-218.65 30.23,-229.19 37.04,-227.58"/>
<text text-anchor="middle" x="200.36" y="-335.63" font-family="Times New Roman,serif" font-size="14.00">1</text>
</g>
<!-- it -->
<g id="node18" class="node">
<title>it</title>
<ellipse fill="none" stroke="black" cx="514.05" cy="-366" rx="27" ry="18"/>
<text text-anchor="middle" x="514.05" y="-360.95" font-family="Times New Roman,serif" font-size="14.00">it</text>
</g>
<!-- analyzed&#45;&gt;it -->
<g id="edge9" class="edge">
<title>analyzed&#45;&gt;it</title>
<path fill="none" stroke="black" d="M444.7,-366C454.8,-366 465.49,-366 475.33,-366"/>
<polygon fill="black" stroke="black" points="475.32,-369.5 485.32,-366 475.32,-362.5 475.32,-369.5"/>
<text text-anchor="middle" x="465.67" y="-369.2" font-family="Times New Roman,serif" font-size="14.00">1</text>
</g>
<!-- wrote -->
<g id="node6" class="node">
<title>wrote</title>
<ellipse fill="none" stroke="black" cx="615.7" cy="-124" rx="31.9" ry="18"/>
<text text-anchor="middle" x="615.7" y="-118.95" font-family="Times New Roman,serif" font-size="14.00">wrote</text>
</g>
<!-- data&#45;&gt;wrote -->
<g id="edge10" class="edge">
<title>data&#45;&gt;wrote</title>
<path fill="none" stroke="black" d="M540.19,-108.3C550.48,-110.47 562.66,-113.03 574.15,-115.45"/>
<polygon fill="black" stroke="black" points="573.33,-118.86 583.83,-117.5 574.77,-112.01 573.33,-118.86"/>
<text text-anchor="middle" x="562.42" y="-116.7" font-family="Times New Roman,serif" font-size="14.00">1</text>
</g>
<!-- so -->
<g id="node17" class="node">
<title>so</title>
<ellipse fill="none" stroke="black" cx="615.7" cy="-186" rx="27" ry="18"/>
<text text-anchor="middle" x="615.7" y="-180.95" font-family="Times New Roman,serif" font-size="14.00">so</text>
</g>
<!-- data&#45;&gt;so -->
<g id="edge11" class="edge">
<title>data&#45;&gt;so</title>
<path fill="none" stroke="black" d="M531.5,-116.71C547.27,-129.84 571.3,-149.86 589.49,-165"/>
<polygon fill="black" stroke="black" points="586.8,-167.32 596.72,-171.03 591.28,-161.94 586.8,-167.32"/>
<text text-anchor="middle" x="562.42" y="-147.7" font-family="Times New Roman,serif" font-size="14.00">1</text>
</g>
<!-- a -->
<g id="node7" class="node">
<title>a</title>
<ellipse fill="none" stroke="black" cx="717.35" cy="-143" rx="27" ry="18"/>
<text text-anchor="middle" x="717.35" y="-137.95" font-family="Times New Roman,serif" font-size="14.00">a</text>
</g>
<!-- wrote&#45;&gt;a -->
<g id="edge12" class="edge">
<title>wrote&#45;&gt;a</title>
<path fill="none" stroke="black" d="M646.33,-129.65C656.89,-131.66 668.91,-133.95 679.97,-136.06"/>
<polygon fill="black" stroke="black" points="679.08,-139.46 689.56,-137.89 680.39,-132.58 679.08,-139.46"/>
<text text-anchor="middle" x="668.98" y="-137.27" font-family="Times New Roman,serif" font-size="14.00">1</text>
</g>
<!-- detailed -->
<g id="node8" class="node">
<title>detailed</title>
<ellipse fill="none" stroke="black" cx="827.19" cy="-165" rx="40.09" ry="18"/>
<text text-anchor="middle" x="827.19" y="-159.95" font-family="Times New Roman,serif" font-size="14.00">detailed</text>
</g>
<!-- a&#45;&gt;detailed -->
<g id="edge13" class="edge">
<title>a&#45;&gt;detailed</title>
<path fill="none" stroke="black" d="M743.64,-148.16C754.22,-150.32 766.87,-152.9 779.06,-155.38"/>
<polygon fill="black" stroke="black" points="778.06,-158.75 788.56,-157.32 779.46,-151.89 778.06,-158.75"/>
<text text-anchor="middle" x="765.73" y="-156.54" font-family="Times New Roman,serif" font-size="14.00">1</text>
</g>
<!-- detailed&#45;&gt;report -->
<g id="edge14" class="edge">
<title>detailed&#45;&gt;report</title>
<path fill="none" stroke="black" d="M861.41,-174.93C874.32,-178.78 889.21,-183.24 902.65,-187.25"/>
<polygon fill="black" stroke="black" points="901.49,-190.56 912.07,-190.07 903.5,-183.85 901.49,-190.56"/>
<text text-anchor="middle" x="888.66" y="-187.24" font-family="Times New Roman,serif" font-size="14.00">1</text>
</g>
<!-- and -->
<g id="node10" class="node">
<title>and</title>
<ellipse fill="none" stroke="black" cx="1045.93" cy="-227" rx="27" ry="18"/>
<text text-anchor="middle" x="1045.93" y="-221.95" font-family="Times New Roman,serif" font-size="14.00">and</text>
</g>
<!-- report&#45;&gt;and -->
<g id="edge15" class="edge">
<title>report&#45;&gt;and</title>
<path fill="none" stroke="black" d="M972.9,-207.02C984.29,-210.18 997.49,-213.84 1009.45,-217.16"/>
<polygon fill="black" stroke="black" points="1008.41,-220.5 1018.98,-219.8 1010.28,-213.76 1008.41,-220.5"/>
<text text-anchor="middle" x="997.26" y="-217.88" font-family="Times New Roman,serif" font-size="14.00">1</text>
</g>
<!-- with -->
<g id="node12" class="node">
<title>with</title>
<ellipse fill="none" stroke="black" cx="1045.93" cy="-75" rx="27.3" ry="18"/>
<text text-anchor="middle" x="1045.93" y="-69.95" font-family="Times New Roman,serif" font-size="14.00">with</text>
</g>
<!-- report&#45;&gt;with -->
<g id="edge16" class="edge">
<title>report&#45;&gt;with</title>
<path fill="none" stroke="black" d="M957.37,-182.53C974.68,-161.27 1004.97,-124.08 1024.99,-99.5"/>
<polygon fill="black" stroke="black" points="1027.55,-101.89 1031.15,-91.92 1022.12,-97.47 1027.55,-101.89"/>
<text text-anchor="middle" x="997.26" y="-140.2" font-family="Times New Roman,serif" font-size="14.00">1</text>
</g>
<!-- shared -->
<g id="node11" class="node">
<title>shared</title>
<ellipse fill="none" stroke="black" cx="1150.95" cy="-255" rx="34.97" ry="18"/>
<text text-anchor="middle" x="1150.95" y="-249.95" font-family="Times New Roman,serif" font-size="14.00">shared</text>
</g>
<!-- and&#45;&gt;shared -->
<g id="edge17" class="edge">
<title>and&#45;&gt;shared</title>
<path fill="none" stroke="black" d="M1071.35,-233.64C1082.48,-236.66 1095.98,-240.33 1108.63,-243.77"/>
<polygon fill="black" stroke="black" points="1107.41,-247.07 1117.98,-246.31 1109.25,-240.31 1107.41,-247.07"/>
<text text-anchor="middle" x="1094.6" y="-243.36" font-family="Times New Roman,serif" font-size="14.00">1</text>
</g>
<!-- shared&#45;&gt;the -->
<g id="edge18" class="edge">
<title>shared&#45;&gt;the</title>
<path fill="none" stroke="black" d="M1122.91,-266.14C1102.42,-273.58 1073.37,-282 1046.93,-282 136.87,-282 136.87,-282 136.87,-282 98.47,-282 65.18,-248.94 45.84,-224.56"/>
<polygon fill="black" stroke="black" points="48.64,-222.46 39.81,-216.6 43.07,-226.69 48.64,-222.46"/>
<text text-anchor="middle" x="615.7" y="-285.2" font-family="Times New Roman,serif" font-size="14.00">1</text>
</g>
<!-- with&#45;&gt;the -->
<g id="edge19" class="edge">
<title>with&#45;&gt;the</title>
<path fill="none" stroke="black" d="M1033.63,-58.73C1016.84,-36.67 983.05,0 943.96,0 136.87,0 136.87,0 136.87,0 60.55,0 37.39,-114.02 30.64,-169.45"/>
<polygon fill="black" stroke="black" points="27.19,-168.81 29.57,-179.13 34.15,-169.58 27.19,-168.81"/>
<text text-anchor="middle" x="562.42" y="-3.2" font-family="Times New Roman,serif" font-size="14.00">1</text>
</g>
<!-- but -->
<g id="node14" class="node">
<title>but</title>
<ellipse fill="none" stroke="black" cx="267.96" cy="-153" rx="27" ry="18"/>
<text text-anchor="middle" x="267.96" y="-147.95" font-family="Times New Roman,serif" font-size="14.00">but</text>
</g>
<!-- team&#45;&gt;but -->
<g id="edge20" class="edge">
<title>team&#45;&gt;but</title>
<path fill="none" stroke="black" d="M164.01,-108.53C176.12,-112.78 190.78,-118.15 203.73,-123.5 214.09,-127.78 225.22,-132.82 235.21,-137.51"/>
<polygon fill="black" stroke="black" points="233.62,-140.63 244.15,-141.77 236.62,-134.31 233.62,-140.63"/>
<text text-anchor="middle" x="200.36" y="-126.7" font-family="Times New Roman,serif" font-size="14.00">1</text>
</g>
<!-- requested -->
<g id="node15" class="node">
<title>requested</title>
<ellipse fill="none" stroke="black" cx="267.96" cy="-99" rx="46.23" ry="18"/>
<text text-anchor="middle" x="267.96" y="-93.95" font-family="Times New Roman,serif" font-size="14.00">requested</text>
</g>
<!-- team&#45;&gt;requested -->
<g id="edge21" class="edge">
<title>team&#45;&gt;requested</title>
<path fill="none" stroke="black" d="M164,-91.22C174.11,-88.13 185.97,-85.03 196.98,-83.5 205.28,-82.34 214.07,-82.87 222.5,-84.27"/>
<polygon fill="black" stroke="black" points="221.71,-87.68 232.22,-86.34 223.16,-80.84 221.71,-87.68"/>
<text text-anchor="middle" x="200.36" y="-86.7" font-family="Times New Roman,serif" font-size="14.00">1</text>
</g>
<!-- but&#45;&gt;the -->
<g id="edge22" class="edge">
<title>but&#45;&gt;the</title>
<path fill="none" stroke="black" d="M240.56,-152.76C206.7,-153.05 146.44,-155.59 96.75,-168.5 83.88,-171.84 70.37,-177.35 58.77,-182.78"/>
<polygon fill="black" stroke="black" points="57.54,-179.48 50.08,-187 60.61,-185.77 57.54,-179.48"/>
<text text-anchor="middle" x="137.87" y="-171.7" font-family="Times New Roman,serif" font-size="14.00">1</text>
</g>
<!-- more -->
<g id="node16" class="node">
<title>more</title>
<ellipse fill="none" stroke="black" cx="400.62" cy="-101" rx="30.37" ry="18"/>
<text text-anchor="middle" x="400.62" y="-95.95" font-family="Times New Roman,serif" font-size="14.00">more</text>
</g>
<!-- requested&#45;&gt;more -->
<g id="edge23" class="edge">
<title>requested&#45;&gt;more</title>
<path fill="none" stroke="black" d="M314.66,-99.7C329.03,-99.92 344.81,-100.16 358.82,-100.38"/>
<polygon fill="black" stroke="black" points="358.53,-103.87 368.59,-100.52 358.64,-96.87 358.53,-103.87"/>
<text text-anchor="middle" x="335.57" y="-103.26" font-family="Times New Roman,serif" font-size="14.00">1</text>
</g>
<!-- more&#45;&gt;data -->
<g id="edge24" class="edge">
<title>more&#45;&gt;data</title>
<path fill="none" stroke="black" d="M431.19,-101.53C444.82,-101.78 461.16,-102.07 475.64,-102.33"/>
<polygon fill="black" stroke="black" points="475.19,-105.82 485.25,-102.5 475.32,-98.82 475.19,-105.82"/>
<text text-anchor="middle" x="465.67" y="-105.38" font-family="Times New Roman,serif" font-size="14.00">1</text>
</g>
<!-- so&#45;&gt;the -->
<g id="edge25" class="edge">
<title>so&#45;&gt;the</title>
<path fill="none" stroke="black" d="M588.42,-186.58C494.62,-188.66 175.99,-195.72 65.84,-198.16"/>
<polygon fill="black" stroke="black" points="65.78,-194.66 55.86,-198.38 65.94,-201.66 65.78,-194.66"/>
<text text-anchor="middle" x="335.57" y="-195.42" font-family="Times New Roman,serif" font-size="14.00">1</text>
</g>
<!-- again -->
<g id="node19" class="node">
<title>again</title>
<ellipse fill="none" stroke="black" cx="615.7" cy="-366" rx="30.88" ry="18"/>
<text text-anchor="middle" x="615.7" y="-360.95" font-family="Times New Roman,serif" font-size="14.00">again</text>
</g>
<!-- it&#45;&gt;again -->
<g id="edge26" class="edge">
<title>it&#45;&gt;again</title>
<path fill="none" stroke="black" d="M541.49,-366C551.23,-366 562.51,-366 573.25,-366"/>
<polygon fill="black" stroke="black" points="573.09,-369.5 583.09,-366 573.09,-362.5 573.09,-369.5"/>
<text text-anchor="middle" x="562.42" y="-369.2" font-family="Times New Roman,serif" font-size="14.00">1</text>
</g>
</g>
</svg>
